<?xml version="1.0" encoding="UTF-8" standalone="no"?><!DOCTYPE svg PUBLIC "-//W3C//DTD SVG 1.1//EN" "http://www.w3.org/Graphics/SVG/1.1/DTD/svg11.dtd"><svg width="100%" height="100%" viewBox="0 0 400 400" version="1.1" xmlns="http://www.w3.org/2000/svg" xmlns:xlink="http://www.w3.org/1999/xlink" xml:space="preserve" xmlns:serif="http://www.serif.com/" style="fill-rule:evenodd;clip-rule:evenodd;stroke-linecap:round;stroke-linejoin:round;stroke-miterlimit:1.5;"><circle cx="200" cy="200" r="150" style="fill:#b41f25;"/><path d="M216.391,107.043c27.232,4.801 52.72,11.991 75.487,20.877c68.112,26.586 111.864,68.358 105.084,106.81c-9.047,51.304 -104.647,77.395 -213.353,58.227c-108.706,-19.167 -189.617,-76.382 -180.571,-127.687c6.582,-37.325 58.975,-61.305 128.898,-64.221c26.188,-1.092 54.835,0.771 84.455,5.994Zm-6.251,35.453c24.763,4.366 47.946,10.88 68.648,18.96c28.737,11.217 52.584,25.225 68.282,40.896c8.842,8.827 16.05,16.99 14.438,26.126c-1.799,10.204 -12.946,15.683 -26.179,21.237c-35.045,14.708 -88.215,17.885 -145.469,7.789c-57.253,-10.095 -106.131,-31.265 -134.031,-57.072c-10.535,-9.746 -19.137,-18.707 -17.337,-28.91c1.531,-8.686 10.445,-13.762 20.992,-18.894c18.974,-9.231 44.679,-14.389 73.952,-15.61c23.785,-0.992 49.801,0.734 76.704,5.478Z" style="fill:#2100ff;"/><circle cx="200" cy="200" r="150" style="fill:url(#_Linear1);"/><path d="M312.09,135.313l-14.063,1.757l-34.57,148.242l-31.758,0l-31.289,-112.617l-0.703,0l-31.289,112.618l-31.758,-0l-34.805,-148.243l-13.945,-1.757l0,-20.625l62.813,-0l-0,20.625l-15.586,2.695l19.57,93.515l0.703,0.118l31.992,-116.953l25.196,-0l32.226,116.953l0.703,-0.118l19.453,-93.515l-15.585,-2.695l-0,-20.625l62.695,-0l-0,20.625Z" style="fill:#fff;fill-rule:nonzero;"/><path d="M301.705,278.423c-87.504,9.973 -161.338,-5.67 -226.854,-41.432" style="fill:none;stroke:#2100ff;stroke-width:36px;"/><defs><linearGradient id="_Linear1" x1="0" y1="0" x2="1" y2="0" gradientUnits="userSpaceOnUse" gradientTransform="matrix(-2.35031,12.04,-12.04,-2.35031,197.629,200)"><stop offset="0" style="stop-color:#b41f25;stop-opacity:1"/><stop offset="1" style="stop-color:#b41f25;stop-opacity:0"/></linearGradient></defs></svg>